<svg width="25" height="24" viewBox="0 0 25 24" fill="none" xmlns="http://www.w3.org/2000/svg">
<g clip-path="url(#clip0_2_350)">
<path d="M17.0984 8.16492H7.90162C3.53781 8.16492 0 11.7087 0 16.0817C0 20.4547 3.53781 24 7.90162 24H17.0984C21.4622 24 25 20.4547 25 16.0817C25 11.7087 21.4622 8.16492 17.0984 8.16492ZM16.9261 23.0921C13.0637 23.0921 9.93201 19.9537 9.93201 16.0832C9.93201 12.2127 13.0637 9.07436 16.9261 9.07436C20.7885 9.07436 23.9202 12.2127 23.9202 16.0832C23.9202 19.9537 20.7885 23.0921 16.9261 23.0921Z" fill="#34C759"/>
<path d="M16.0047 4.68437C16.0047 5.68167 16.2632 6.61732 16.7169 7.42811C14.5112 7.04738 12.833 5.1206 12.833 2.80075C12.833 2.50942 12.8592 2.22426 12.9115 1.9468C13.3422 1.81578 13.8005 1.74487 14.2743 1.74487C15.0895 1.74487 15.8571 1.95451 16.5246 2.32137C16.1909 3.03967 16.0047 3.83967 16.0047 4.68437Z" fill="#34C759"/>
<path d="M22.2067 2.80077C22.2067 4.92023 20.8069 6.71137 18.8827 7.29557C18.552 7.39576 18.2074 7.46204 17.849 7.48516H17.8475C17.2676 6.70366 16.9246 5.7341 16.9246 4.68439C16.9246 4.03391 17.0568 3.41426 17.2953 2.8501C17.9674 1.26243 19.4856 0.123314 21.2838 0C21.8636 0.781503 22.2067 1.75106 22.2067 2.80077Z" fill="#34C759"/>
<path d="M16.3973 10.099C16.6402 10.3869 17.1588 10.013 17.3478 10.3722C17.4155 10.5007 17.6438 10.5591 17.7776 10.5591C17.9154 10.5591 18.1087 10.6577 18.2233 10.7301C18.2782 10.7647 18.3478 10.7722 18.308 10.6869C18.2813 10.6298 18.1387 10.5493 18.1993 10.5319C18.3165 10.4985 18.4715 10.5702 18.586 10.5911C18.6961 10.6111 18.802 10.6547 18.9135 10.6741C19.0092 10.6908 19.0679 10.7633 19.1595 10.7908C19.3166 10.8379 19.4133 10.9475 19.5477 11.0208C19.6512 11.0772 19.7625 11.1657 19.8625 11.2349C19.9713 11.3103 20.1427 11.3475 20.2251 11.4506C20.2562 11.4895 20.3382 11.5156 20.3817 11.5512C20.4499 11.607 20.5017 11.6502 20.5526 11.7238C20.6161 11.8155 20.7552 11.9888 20.8546 12.0385C20.9584 12.0904 21.0589 12.2123 21.1581 12.2845C21.2935 12.383 21.3158 12.5283 21.4025 12.6584C21.4666 12.7544 21.5784 12.8968 21.6054 13.005C21.6435 13.1574 21.7771 13.2758 21.8291 13.4188C21.8667 13.5221 21.933 13.6058 21.9697 13.716C22.0058 13.8242 22.0484 13.9678 22.1071 14.0611C22.2528 14.2925 22.2924 14.6323 22.2924 14.9014C22.2924 15.244 22.4781 15.5631 22.5736 15.8855C22.6212 16.0463 22.6084 16.2084 22.6439 16.368C22.6733 16.5005 22.7434 16.6447 22.7525 16.777C22.77 17.0302 22.8178 17.2544 22.81 17.5183C22.8071 17.6167 22.752 17.8033 22.695 17.8857C22.6282 17.9822 22.6318 18.0864 22.564 18.1861C22.5086 18.2675 22.4784 18.3966 22.4426 18.4896C22.4114 18.5706 22.4298 18.7014 22.3723 18.7612C22.276 18.8614 22.218 18.9857 22.1199 19.0839C22.0691 19.1347 22.0193 19.2051 21.9825 19.266C21.9377 19.3401 21.856 19.3974 21.8259 19.4737C21.7792 19.5923 21.6018 19.7026 21.5 19.7773C21.3053 19.92 21.1026 20.0723 20.9249 20.2358C20.7428 20.4033 20.5406 20.4955 20.3194 20.5857C20.2041 20.6326 20.0519 20.6953 19.9519 20.7694C19.8604 20.8372 19.7872 20.9511 19.6899 21.0074C19.4257 21.1604 19.1456 21.2819 18.8991 21.458C18.677 21.6166 18.4145 21.658 18.169 21.7903C17.9143 21.9274 17.5673 22.0043 17.2743 22.0043C17.0871 22.0043 16.9175 22.0618 16.728 22.0618C16.5645 22.0618 16.401 22.0618 16.2375 22.0618C15.8583 22.0618 15.419 22.0222 15.0601 21.8893C14.6573 21.7402 14.2848 21.6421 13.9114 21.418C13.7828 21.3409 13.6345 21.2928 13.5088 21.2055C13.3457 21.0922 13.1644 20.9846 12.988 20.8988C12.7959 20.8054 12.632 20.6193 12.4799 20.4706C12.2903 20.2852 12.1264 20.0837 11.9527 19.8827C11.6697 19.5552 11.3654 19.2193 11.1699 18.8283C11.0722 18.633 10.9842 18.4327 10.8919 18.2372C10.8167 18.0779 10.7878 17.9312 10.7322 17.7643C10.6469 17.5086 10.6206 17.1745 10.6171 16.9048C10.6144 16.6935 10.5881 16.4516 10.6235 16.2434C10.6513 16.0799 10.6701 15.8877 10.6746 15.7226C10.6808 15.5023 10.7798 15.3066 10.7897 15.0803C10.7953 14.9505 10.8828 14.6615 10.9558 14.5563C11.0172 14.4679 11.0365 14.3615 11.0932 14.2687C11.1525 14.1717 11.2125 14.0393 11.2434 13.93C11.2745 13.8199 11.34 13.7181 11.3776 13.6073C11.407 13.5207 11.4683 13.418 11.515 13.3389C11.6239 13.1546 11.7235 12.9635 11.8313 12.7798C12.0228 12.4535 12.2308 12.08 12.5007 11.81C12.7621 11.5486 13.0191 11.2705 13.2628 10.9921C13.36 10.8809 13.5148 10.8244 13.6366 10.746C13.7487 10.674 13.8337 10.6028 13.9529 10.5431C14.1407 10.4492 14.2728 10.3866 14.4849 10.3866C14.6338 10.3866 14.6326 10.629 14.6415 10.762C14.6554 10.9705 14.6629 11.2151 14.6287 11.4202C14.5626 11.8169 14.6787 12.1939 14.7741 12.5753C14.7944 12.6567 14.7914 12.7446 14.8875 12.7446C14.9808 12.7446 15.0622 12.7421 15.1479 12.7015C15.3207 12.6196 15.5089 12.6328 15.6767 12.5593C15.7921 12.5089 15.9849 12.5433 16.1081 12.5433C16.3072 12.5433 16.5138 12.5171 16.6992 12.6008C16.8063 12.6492 16.9075 12.7013 17.0235 12.7223C17.1425 12.7437 17.2229 12.8174 17.3334 12.8533C17.5242 12.9151 17.7399 13.0397 17.915 13.1408C18.306 13.3668 18.6923 13.6452 19.0205 13.9588C19.1889 14.1197 19.3587 14.2718 19.519 14.4413C19.7038 14.6367 19.7512 14.9403 19.8832 15.1666C19.9999 15.3665 20.0511 15.5832 20.1356 15.7992C20.1815 15.9164 20.198 16.0493 20.2571 16.1603C20.3126 16.2646 20.3026 16.3783 20.3497 16.483C20.5507 16.9297 20.4744 17.5277 20.3242 17.9784C20.1714 18.4366 19.7197 18.7364 19.3528 19.0136C19.1596 19.1596 18.901 19.2292 18.6882 19.3459C18.4918 19.4537 18.2416 19.5669 18.03 19.6399C17.9353 19.6725 17.8639 19.6714 17.7712 19.7262C17.6904 19.7739 17.603 19.8226 17.5188 19.8635C17.3871 19.9276 17.1963 19.9914 17.0523 19.9914C16.5479 19.9914 16.0431 20.0159 15.5617 19.846C15.2878 19.7493 15.0569 19.6993 14.8124 19.5312C14.4823 19.3043 14.2045 18.9606 13.9098 18.6877C13.762 18.5509 13.6307 18.4305 13.5344 18.2516C13.4851 18.1602 13.4296 18.0712 13.3794 17.98C13.3276 17.8858 13.3241 17.78 13.2628 17.6924C13.136 17.5113 13.0941 17.2656 13.0455 17.0534C12.9773 16.7559 12.9464 16.4411 12.9464 16.1347C12.9464 15.778 12.9453 15.3997 13.0615 15.0596C13.1365 14.8398 13.2158 14.6386 13.3059 14.4285C13.4706 14.0442 13.9912 14.1773 14.3124 14.24C14.4657 14.2699 14.6274 14.3257 14.7725 14.3838C14.9075 14.4378 15.0545 14.447 15.1879 14.5004C15.4655 14.6115 15.7508 14.6887 16.0378 14.772C16.3021 14.8487 16.5946 14.9275 16.843 15.0484C17.0018 15.1257 17.152 15.228 17.3047 15.3168C17.4829 15.4204 17.6407 15.4851 17.776 15.6475C18.1021 16.0388 18.4102 16.6045 18.4102 17.1221C18.4102 17.3462 18.4715 17.7305 18.2664 17.8857C18.1527 17.9718 17.958 17.9776 17.8255 18.0231C17.6744 18.075 17.5014 18.1482 17.3398 18.1509C16.8892 18.1586 16.379 18.2172 15.9595 18.0359C15.6829 17.9164 15.4015 17.8268 15.1447 17.662C14.9973 17.5675 14.8709 17.4549 14.7357 17.3457C14.5893 17.2274 14.4705 16.9586 14.4705 16.7706C14.4705 16.4631 14.932 16.517 15.1256 16.598C15.5992 16.7963 16.0604 17.0415 16.541 17.2243C16.8713 17.3499 17.216 17.5183 17.5763 17.5183" stroke="#34C759" stroke-width="3" stroke-linecap="round"/>
</g>
<defs>
<clipPath id="clip0_2_350">
<rect width="25" height="24" fill="white"/>
</clipPath>
</defs>
</svg>
